# Blender 3.6.0
# www.blender.org
mtllib SM_Shell.mtl
o projectile
v 0.096336 0.149999 0.000001
v 0.475726 0.149999 0.000001
v 0.096336 0.138581 -0.057402
v 0.475726 0.138581 -0.057402
v 0.096336 0.106065 -0.106065
v 0.475726 0.106065 -0.106065
v 0.096336 0.057402 -0.138581
v 0.475726 0.057402 -0.138581
v 0.096336 -0.000001 -0.149999
v 0.475726 -0.000001 -0.149999
v 0.096336 -0.057403 -0.138581
v 0.475726 -0.057403 -0.138581
v 0.096336 -0.106067 -0.106065
v 0.475726 -0.106067 -0.106065
v 0.096336 -0.138583 -0.057402
v 0.475726 -0.138583 -0.057402
v 0.096336 -0.150001 0.000001
v 0.475726 -0.150001 0.000001
v 0.096336 -0.138583 0.057403
v 0.475726 -0.138583 0.057403
v 0.096336 -0.106067 0.106067
v 0.475726 -0.106067 0.106067
v 0.096336 -0.057403 0.138583
v 0.475726 -0.057403 0.138583
v 0.096336 -0.000001 0.150001
v 0.475726 -0.000001 0.150001
v 0.096336 0.057402 0.138583
v 0.475726 0.057402 0.138583
v 0.096336 0.106065 0.106067
v 0.475726 0.106065 0.106067
v 0.096336 0.138581 0.057403
v 0.475726 0.138581 0.057403
v 0.691773 0.027062 -0.027059
v 0.670096 0.050002 -0.049999
v 0.637653 0.065330 -0.065327
v 0.599385 0.070713 -0.070710
v 0.561116 0.065330 -0.065327
v 0.528674 0.050002 -0.049999
v 0.506997 0.027062 -0.027059
v 0.691773 0.000002 -0.038268
v 0.670096 0.000002 -0.070710
v 0.637653 0.000002 -0.092387
v 0.599385 0.000002 -0.099999
v 0.561116 0.000002 -0.092387
v 0.528674 0.000002 -0.070710
v 0.506997 0.000002 -0.038268
v 0.691773 -0.027058 -0.027059
v 0.670096 -0.049998 -0.049999
v 0.637653 -0.065326 -0.065327
v 0.599385 -0.070709 -0.070710
v 0.561116 -0.065326 -0.065327
v 0.528674 -0.049998 -0.049999
v 0.506997 -0.027058 -0.027059
v 0.691773 -0.038266 0.000001
v 0.670096 -0.070709 0.000001
v 0.637653 -0.092386 0.000001
v 0.599385 -0.099998 0.000001
v 0.561116 -0.092386 0.000001
v 0.528674 -0.070709 0.000001
v 0.506997 -0.038266 0.000001
v 0.691773 -0.027058 0.027061
v 0.670096 -0.049998 0.050001
v 0.637653 -0.065326 0.065329
v 0.599385 -0.070709 0.070711
v 0.561116 -0.065326 0.065329
v 0.528674 -0.049998 0.050001
v 0.506997 -0.027058 0.027061
v 0.691773 0.000002 0.038269
v 0.670096 0.000002 0.070711
v 0.637653 0.000002 0.092389
v 0.599385 0.000002 0.100001
v 0.561116 0.000002 0.092389
v 0.528674 0.000002 0.070711
v 0.506997 0.000002 0.038269
v 0.691773 0.027062 0.027061
v 0.670096 0.050002 0.050001
v 0.637653 0.065330 0.065329
v 0.599385 0.070713 0.070711
v 0.561116 0.065330 0.065329
v 0.528674 0.050002 0.050001
v 0.506997 0.027062 0.027061
v 0.499385 0.000002 0.000001
v 0.699385 0.000002 0.000001
v 0.691773 0.038270 0.000001
v 0.670096 0.070713 0.000001
v 0.637653 0.092390 0.000001
v 0.599385 0.100002 0.000001
v 0.561116 0.092390 0.000001
v 0.528674 0.070713 0.000001
v 0.506997 0.038270 0.000001
v 0.003406 0.149999 0.000001
v 0.066830 0.149999 0.000001
v 0.003406 0.138581 -0.057402
v 0.066830 0.138581 -0.057402
v 0.003406 0.106065 -0.106065
v 0.066830 0.106065 -0.106065
v 0.003406 0.057402 -0.138581
v 0.066830 0.057402 -0.138581
v 0.003406 -0.000001 -0.149999
v 0.066830 -0.000001 -0.149999
v 0.003406 -0.057403 -0.138581
v 0.066830 -0.057403 -0.138581
v 0.003406 -0.106067 -0.106065
v 0.066830 -0.106067 -0.106065
v 0.003406 -0.138583 -0.057402
v 0.066830 -0.138583 -0.057402
v 0.003406 -0.150001 0.000001
v 0.066830 -0.150001 0.000001
v 0.003406 -0.138583 0.057403
v 0.066830 -0.138583 0.057403
v 0.003406 -0.106067 0.106067
v 0.066830 -0.106067 0.106067
v 0.003406 -0.057403 0.138583
v 0.066830 -0.057403 0.138583
v 0.003406 -0.000001 0.150001
v 0.066830 -0.000001 0.150001
v 0.003406 0.057402 0.138583
v 0.066830 0.057402 0.138583
v 0.003406 0.106065 0.106067
v 0.066830 0.106065 0.106067
v 0.003406 0.138581 0.057403
v 0.066830 0.138581 0.057403
vn -0.0000 1.0000 -0.0000
vn -0.0000 0.9239 -0.3827
vn -0.0000 0.7071 -0.7071
vn -0.0000 0.3827 -0.9239
vn -0.0000 -0.0000 -1.0000
vn -0.0000 -0.3827 -0.9239
vn -0.0000 -0.7071 -0.7071
vn -0.0000 -0.9239 -0.3827
vn -0.0000 -1.0000 -0.0000
vn -0.0000 -0.9239 0.3827
vn -0.0000 -0.7071 0.7071
vn -0.0000 -0.3827 0.9239
vn -0.0000 -0.0000 1.0000
vn -0.0000 0.3827 0.9239
vn -0.0000 0.7071 0.7071
vn 1.0000 -0.0000 -0.0000
vn -0.0000 0.9239 0.3827
vn -1.0000 -0.0000 -0.0000
vn 0.3668 0.9303 -0.0000
vn 0.6839 0.7296 -0.0000
vn 0.6839 0.5159 -0.5159
vn 0.3668 0.6578 -0.6578
vn 0.9063 0.4226 -0.0000
vn 0.9063 0.2988 -0.2988
vn -0.9063 0.4226 -0.0000
vn -0.9063 0.2988 -0.2988
vn -0.6839 0.7296 -0.0000
vn -0.3668 0.9303 -0.0000
vn -0.3668 0.6578 -0.6578
vn -0.6839 0.5159 -0.5159
vn -0.3668 -0.0000 -0.9303
vn -0.6839 -0.0000 -0.7296
vn 0.3668 -0.0000 -0.9303
vn 0.9063 -0.0000 -0.4226
vn 0.6839 -0.0000 -0.7296
vn -0.9063 -0.0000 -0.4226
vn -0.6839 -0.5159 -0.5159
vn -0.9063 -0.2988 -0.2988
vn -0.3668 -0.6578 -0.6578
vn 0.6839 -0.5159 -0.5159
vn 0.3668 -0.6578 -0.6578
vn 0.9063 -0.2988 -0.2988
vn -0.3668 -0.9303 -0.0000
vn 0.6839 -0.7296 -0.0000
vn 0.3668 -0.9303 -0.0000
vn 0.9063 -0.4226 -0.0000
vn -0.9063 -0.4226 -0.0000
vn -0.6839 -0.7296 -0.0000
vn -0.9063 -0.2988 0.2988
vn -0.3668 -0.6578 0.6578
vn -0.6839 -0.5159 0.5159
vn 0.3668 -0.6578 0.6578
vn 0.9063 -0.2988 0.2988
vn 0.6839 -0.5159 0.5159
vn 0.3668 -0.0000 0.9303
vn 0.9063 -0.0000 0.4226
vn 0.6839 -0.0000 0.7296
vn -0.6839 -0.0000 0.7296
vn -0.9063 -0.0000 0.4226
vn -0.3668 -0.0000 0.9303
vn -0.6839 0.5159 0.5159
vn -0.9063 0.2988 0.2988
vn -0.3668 0.6578 0.6578
vn 0.6839 0.5159 0.5159
vn 0.3668 0.6578 0.6578
vn 0.9063 0.2988 0.2988
vt 1.000000 0.500000
vt 1.000000 1.000000
vt 0.937500 1.000000
vt 0.937500 0.500000
vt 0.875000 1.000000
vt 0.875000 0.500000
vt 0.812500 1.000000
vt 0.812500 0.500000
vt 0.750000 1.000000
vt 0.750000 0.500000
vt 0.687500 1.000000
vt 0.687500 0.500000
vt 0.625000 1.000000
vt 0.625000 0.500000
vt 0.562500 1.000000
vt 0.562500 0.500000
vt 0.500000 1.000000
vt 0.500000 0.500000
vt 0.437500 1.000000
vt 0.437500 0.500000
vt 0.375000 1.000000
vt 0.375000 0.500000
vt 0.312500 1.000000
vt 0.312500 0.500000
vt 0.250000 1.000000
vt 0.250000 0.500000
vt 0.187500 1.000000
vt 0.187500 0.500000
vt 0.125000 1.000000
vt 0.125000 0.500000
vt 0.341844 0.471731
vt 0.250000 0.490000
vt 0.158156 0.471731
vt 0.080294 0.419706
vt 0.028269 0.341844
vt 0.010000 0.250000
vt 0.028269 0.158156
vt 0.080294 0.080294
vt 0.158156 0.028269
vt 0.250000 0.010000
vt 0.341844 0.028269
vt 0.419706 0.080294
vt 0.471731 0.158156
vt 0.490000 0.250000
vt 0.471731 0.341844
vt 0.419706 0.419706
vt 0.062500 1.000000
vt 0.062500 0.500000
vt 0.000000 1.000000
vt 0.000000 0.500000
vt 0.750000 0.490000
vt 0.841844 0.471731
vt 0.919706 0.419706
vt 0.971731 0.341844
vt 0.990000 0.250000
vt 0.971731 0.158156
vt 0.919706 0.080294
vt 0.841844 0.028269
vt 0.750000 0.010000
vt 0.658156 0.028269
vt 0.580294 0.080294
vt 0.528269 0.158156
vt 0.510000 0.250000
vt 0.528269 0.341844
vt 0.580294 0.419706
vt 0.658156 0.471731
vt 0.750000 0.625000
vt 0.750000 0.750000
vt 0.625000 0.750000
vt 0.625000 0.625000
vt 0.750000 0.875000
vt 0.625000 0.875000
vt 0.687500 0.000000
vt 0.750000 0.125000
vt 0.625000 0.125000
vt 0.750000 0.250000
vt 0.750000 0.375000
vt 0.625000 0.375000
vt 0.625000 0.250000
vt 0.500000 0.375000
vt 0.500000 0.250000
vt 0.500000 0.625000
vt 0.500000 0.875000
vt 0.500000 0.750000
vt 0.500000 0.125000
vt 0.562500 0.000000
vt 0.375000 0.250000
vt 0.375000 0.125000
vt 0.375000 0.375000
vt 0.375000 0.750000
vt 0.375000 0.625000
vt 0.375000 0.875000
vt 0.437500 0.000000
vt 0.250000 0.375000
vt 0.250000 0.750000
vt 0.250000 0.625000
vt 0.250000 0.875000
vt 0.312500 0.000000
vt 0.250000 0.125000
vt 0.250000 0.250000
vt 0.187500 0.000000
vt 0.125000 0.125000
vt 0.125000 0.375000
vt 0.125000 0.250000
vt 0.125000 0.625000
vt 0.125000 0.875000
vt 0.125000 0.750000
vt 0.000000 0.625000
vt 0.000000 0.875000
vt 0.000000 0.750000
vt 0.000000 0.250000
vt 0.000000 0.125000
vt 0.000000 0.375000
vt 0.062500 1.000000
vt 0.062500 0.000000
vt 1.000000 0.125000
vt 1.000000 0.250000
vt 0.875000 0.250000
vt 0.875000 0.125000
vt 1.000000 0.375000
vt 0.875000 0.375000
vt 1.000000 0.625000
vt 1.000000 0.750000
vt 0.875000 0.750000
vt 0.875000 0.625000
vt 1.000000 0.875000
vt 0.875000 0.875000
vt 0.937500 0.000000
vt 0.812500 0.000000
s 1
usemtl 
f 1/1/1 2/2/1 4/3/2 3/4/2
f 3/4/2 4/3/2 6/5/3 5/6/3
f 5/6/3 6/5/3 8/7/4 7/8/4
f 7/8/4 8/7/4 10/9/5 9/10/5
f 9/10/5 10/9/5 12/11/6 11/12/6
f 11/12/6 12/11/6 14/13/7 13/14/7
f 13/14/7 14/13/7 16/15/8 15/16/8
f 15/16/8 16/15/8 18/17/9 17/18/9
f 17/18/9 18/17/9 20/19/10 19/20/10
f 19/20/10 20/19/10 22/21/11 21/22/11
f 21/22/11 22/21/11 24/23/12 23/24/12
f 23/24/12 24/23/12 26/25/13 25/26/13
f 25/26/13 26/25/13 28/27/14 27/28/14
f 27/28/14 28/27/14 30/29/15 29/30/15
f 4/31/16 2/32/16 32/33/16 30/34/16 28/35/16 26/36/16 24/37/16 22/38/16 20/39/16 18/40/16 16/41/16 14/42/16 12/43/16 10/44/16 8/45/16 6/46/16
f 29/30/15 30/29/15 32/47/17 31/48/17
f 31/48/17 32/47/17 2/49/1 1/50/1
f 1/51/18 3/52/18 5/53/18 7/54/18 9/55/18 11/56/18 13/57/18 15/58/18 17/59/18 19/60/18 21/61/18 23/62/18 25/63/18 27/64/18 29/65/18 31/66/18
f 86/67/19 85/68/20 34/69/21 35/70/22
f 84/71/23 83/11/16 33/72/24
f 82/73/18 90/74/25 39/75/26
f 89/76/27 88/77/28 37/78/29 38/79/30
f 87/10/1 86/67/19 35/70/22 36/14/3
f 85/68/20 84/71/23 33/72/24 34/69/21
f 90/74/25 89/76/27 38/79/30 39/75/26
f 88/77/28 87/10/1 36/14/3 37/78/29
f 38/79/30 37/78/29 44/80/31 45/81/32
f 36/14/3 35/70/22 42/82/33 43/18/5
f 34/69/21 33/72/24 40/83/34 41/84/35
f 39/75/26 38/79/30 45/81/32 46/85/36
f 37/78/29 36/14/3 43/18/5 44/80/31
f 35/70/22 34/69/21 41/84/35 42/82/33
f 33/72/24 83/15/16 40/83/34
f 82/86/18 39/75/26 46/85/36
f 46/85/36 45/81/32 52/87/37 53/88/38
f 44/80/31 43/18/5 50/22/7 51/89/39
f 42/82/33 41/84/35 48/90/40 49/91/41
f 40/83/34 83/19/16 47/92/42
f 82/93/18 46/85/36 53/88/38
f 45/81/32 44/80/31 51/89/39 52/87/37
f 43/18/5 42/82/33 49/91/41 50/22/7
f 41/84/35 40/83/34 47/92/42 48/90/40
f 51/89/39 50/22/7 57/26/9 58/94/43
f 49/91/41 48/90/40 55/95/44 56/96/45
f 47/92/42 83/23/16 54/97/46
f 82/98/18 53/88/38 60/99/47
f 52/87/37 51/89/39 58/94/43 59/100/48
f 50/22/7 49/91/41 56/96/45 57/26/9
f 48/90/40 47/92/42 54/97/46 55/95/44
f 53/88/38 52/87/37 59/100/48 60/99/47
f 82/101/18 60/99/47 67/102/49
f 59/100/48 58/94/43 65/103/50 66/104/51
f 57/26/9 56/96/45 63/105/52 64/30/11
f 55/95/44 54/97/46 61/106/53 62/107/54
f 60/99/47 59/100/48 66/104/51 67/102/49
f 58/94/43 57/26/9 64/30/11 65/103/50
f 56/96/45 55/95/44 62/107/54 63/105/52
f 54/97/46 83/27/16 61/106/53
f 64/30/11 63/105/52 70/108/55 71/50/13
f 62/107/54 61/106/53 68/109/56 69/110/57
f 67/102/49 66/104/51 73/111/58 74/112/59
f 65/103/50 64/30/11 71/50/13 72/113/60
f 63/105/52 62/107/54 69/110/57 70/108/55
f 61/106/53 83/114/16 68/109/56
f 82/115/18 67/102/49 74/112/59
f 66/104/51 65/103/50 72/113/60 73/111/58
f 74/116/59 73/117/58 80/118/61 81/119/62
f 72/120/60 71/1/13 78/6/15 79/121/63
f 70/122/55 69/123/57 76/124/64 77/125/65
f 68/126/56 83/3/16 75/127/66
f 82/128/18 74/116/59 81/119/62
f 73/117/58 72/120/60 79/121/63 80/118/61
f 71/1/13 70/122/55 77/125/65 78/6/15
f 69/123/57 68/126/56 75/127/66 76/124/64
f 77/125/65 76/124/64 85/68/20 86/67/19
f 75/127/66 83/7/16 84/71/23
f 82/129/18 81/119/62 90/74/25
f 80/118/61 79/121/63 88/77/28 89/76/27
f 78/6/15 77/125/65 86/67/19 87/10/1
f 76/124/64 75/127/66 84/71/23 85/68/20
f 81/119/62 80/118/61 89/76/27 90/74/25
f 79/121/63 78/6/15 87/10/1 88/77/28
f 91/1/1 92/2/1 94/3/2 93/4/2
f 93/4/2 94/3/2 96/5/3 95/6/3
f 95/6/3 96/5/3 98/7/4 97/8/4
f 97/8/4 98/7/4 100/9/5 99/10/5
f 99/10/5 100/9/5 102/11/6 101/12/6
f 101/12/6 102/11/6 104/13/7 103/14/7
f 103/14/7 104/13/7 106/15/8 105/16/8
f 105/16/8 106/15/8 108/17/9 107/18/9
f 107/18/9 108/17/9 110/19/10 109/20/10
f 109/20/10 110/19/10 112/21/11 111/22/11
f 111/22/11 112/21/11 114/23/12 113/24/12
f 113/24/12 114/23/12 116/25/13 115/26/13
f 115/26/13 116/25/13 118/27/14 117/28/14
f 117/28/14 118/27/14 120/29/15 119/30/15
f 94/31/16 92/32/16 122/33/16 120/34/16 118/35/16 116/36/16 114/37/16 112/38/16 110/39/16 108/40/16 106/41/16 104/42/16 102/43/16 100/44/16 98/45/16 96/46/16
f 119/30/15 120/29/15 122/47/17 121/48/17
f 121/48/17 122/47/17 92/49/1 91/50/1
f 91/51/18 93/52/18 95/53/18 97/54/18 99/55/18 101/56/18 103/57/18 105/58/18 107/59/18 109/60/18 111/61/18 113/62/18 115/63/18 117/64/18 119/65/18 121/66/18
