# Blender 3.6.0
# www.blender.org
mtllib SM_base.mtl
o pt_base
v -1.500000 0.500000 -1.000000
v 1.500000 0.500000 -1.000000
v -1.500000 0.500000 1.000000
v 1.500000 0.500000 1.000000
v 0.007101 -0.500000 1.000000
v 0.007101 0.500000 -1.000000
v 0.007101 0.500000 1.000000
v 0.007101 -0.500000 -1.000000
v 0.953360 -0.110435 1.000000
v 0.953360 -0.110435 -1.000000
v 0.983808 -0.263509 1.000000
v 0.983808 -0.263509 -1.000000
v 1.070517 -0.393278 1.000000
v 1.070517 -0.393278 -1.000000
v 1.200286 -0.479987 1.000000
v 1.200286 -0.479987 -1.000000
v 1.353360 -0.510435 1.000000
v 1.353360 -0.510435 -1.000000
v 1.506433 -0.479987 1.000000
v 1.506433 -0.479987 -1.000000
v 1.636202 -0.393278 1.000000
v 1.636202 -0.393278 -1.000000
v 1.722911 -0.263509 1.000000
v 1.722911 -0.263509 -1.000000
v 1.753360 -0.110435 1.000000
v 1.753360 -0.110435 -1.000000
v 1.722911 0.042638 1.000000
v 1.722911 0.042638 -1.000000
v 1.636202 0.172407 1.000000
v 1.636202 0.172408 -1.000000
v 1.506433 0.259116 1.000000
v 1.506433 0.259117 -1.000000
v 1.353360 0.289565 1.000000
v 1.353360 0.289565 -1.000000
v 1.200286 0.259116 1.000000
v 1.200286 0.259117 -1.000000
v 1.070517 0.172407 1.000000
v 1.070517 0.172408 -1.000000
v 0.983808 0.042638 1.000000
v 0.983808 0.042638 -1.000000
v -1.748397 -0.110435 1.000000
v -1.748397 -0.110435 -1.000000
v -1.717949 -0.263509 1.000000
v -1.717949 -0.263509 -1.000000
v -1.631240 -0.393278 1.000000
v -1.631240 -0.393278 -1.000000
v -1.501470 -0.479987 1.000000
v -1.501470 -0.479987 -1.000000
v -1.348397 -0.510435 1.000000
v -1.348397 -0.510435 -1.000000
v -1.195324 -0.479987 1.000000
v -1.195324 -0.479987 -1.000000
v -1.065554 -0.393278 1.000000
v -1.065554 -0.393278 -1.000000
v -0.978845 -0.263509 1.000000
v -0.978845 -0.263509 -1.000000
v -0.948397 -0.110435 1.000000
v -0.948397 -0.110435 -1.000000
v -0.978845 0.042638 1.000000
v -0.978845 0.042638 -1.000000
v -1.065554 0.172407 1.000000
v -1.065554 0.172408 -1.000000
v -1.195324 0.259116 1.000000
v -1.195324 0.259117 -1.000000
v -1.348397 0.289565 1.000000
v -1.348397 0.289565 -1.000000
v -1.501470 0.259116 1.000000
v -1.501470 0.259117 -1.000000
v -1.631240 0.172407 1.000000
v -1.631240 0.172408 -1.000000
v -1.717949 0.042638 1.000000
v -1.717949 0.042638 -1.000000
vn -0.0000 1.0000 -0.0000
vn 0.5565 -0.8308 -0.0000
vn -0.0000 -0.0000 1.0000
vn -0.0000 -0.0000 -1.0000
vn -0.5529 -0.8333 -0.0000
vn -1.0000 -0.0000 -0.0000
vn -0.9239 -0.3827 -0.0000
vn -0.7071 -0.7071 -0.0000
vn -0.3827 -0.9239 -0.0000
vn -0.0000 -1.0000 -0.0000
vn 0.3827 -0.9239 -0.0000
vn 0.7071 -0.7071 -0.0000
vn 0.9239 -0.3827 -0.0000
vn 1.0000 -0.0000 -0.0000
vn 0.9239 0.3827 -0.0000
vn 0.7071 0.7071 -0.0000
vn 0.3827 0.9239 -0.0000
vn -0.3827 0.9239 -0.0000
vn -0.7071 0.7071 -0.0000
vn -0.9239 0.3827 -0.0000
vt 0.301932 0.699953
vt 0.192750 0.807645
vt 0.112364 0.726146
vt 0.221545 0.618455
vt 0.124791 0.520362
vt 0.015610 0.628054
vt 0.424456 0.573393
vt 0.333143 0.661950
vt 0.199679 0.524333
vt 0.094180 0.958086
vt 0.172781 0.865842
vt 0.310492 0.983186
vt 0.371292 0.988656
vt 0.273901 0.889919
vt 0.383083 0.782227
vt 0.480473 0.880965
vt 0.033760 0.747382
vt 0.465350 0.798270
vt 0.745216 0.249383
vt 0.515323 0.249383
vt 0.515323 0.231443
vt 0.745216 0.231443
vt 0.515323 0.213503
vt 0.745216 0.213503
vt 0.515323 0.195563
vt 0.745216 0.195563
vt 0.515323 0.177623
vt 0.745216 0.177623
vt 0.745216 0.464662
vt 0.515323 0.464661
vt 0.515323 0.446721
vt 0.745216 0.446722
vt 0.515323 0.428782
vt 0.745216 0.428782
vt 0.515323 0.410842
vt 0.745216 0.410842
vt 0.515323 0.392902
vt 0.745216 0.392902
vt 0.515323 0.374962
vt 0.745216 0.374962
vt 0.515323 0.357022
vt 0.745216 0.357022
vt 0.515323 0.339082
vt 0.745216 0.339082
vt 0.515323 0.321142
vt 0.745216 0.321142
vt 0.515323 0.303202
vt 0.745216 0.303202
vt 0.515323 0.285262
vt 0.745216 0.285263
vt 0.645737 0.801831
vt 0.623908 0.810873
vt 0.600280 0.810873
vt 0.578452 0.801831
vt 0.561744 0.785124
vt 0.552703 0.763295
vt 0.552703 0.739667
vt 0.561745 0.717839
vt 0.578452 0.701131
vt 0.600280 0.692090
vt 0.623908 0.692090
vt 0.645737 0.701131
vt 0.662444 0.717839
vt 0.671486 0.739667
vt 0.671486 0.763295
vt 0.662444 0.785124
vt 0.515323 0.267323
vt 0.745216 0.267323
vt 0.552703 0.644512
vt 0.552703 0.620884
vt 0.561745 0.599055
vt 0.578452 0.582348
vt 0.600281 0.573307
vt 0.623908 0.573307
vt 0.645737 0.582349
vt 0.662444 0.599056
vt 0.671486 0.620884
vt 0.671486 0.644512
vt 0.662444 0.666341
vt 0.645737 0.683048
vt 0.578452 0.683048
vt 0.561745 0.666341
vt 0.757821 0.392329
vt 0.988955 0.392329
vt 0.988955 0.410366
vt 0.757820 0.410366
vt 0.988955 0.428403
vt 0.757821 0.428403
vt 0.988955 0.446439
vt 0.757821 0.446439
vt 0.988955 0.464476
vt 0.757821 0.464476
vt 0.757820 0.175888
vt 0.988955 0.175888
vt 0.988955 0.193925
vt 0.757820 0.193924
vt 0.988955 0.211961
vt 0.757820 0.211961
vt 0.988955 0.229998
vt 0.757820 0.229998
vt 0.988955 0.248035
vt 0.757820 0.248035
vt 0.988955 0.266072
vt 0.757820 0.266072
vt 0.988955 0.284108
vt 0.757820 0.284108
vt 0.988955 0.302145
vt 0.757820 0.302145
vt 0.988955 0.320182
vt 0.757820 0.320182
vt 0.988955 0.338219
vt 0.757820 0.338219
vt 0.988955 0.356256
vt 0.757820 0.356256
vt 0.781227 0.599055
vt 0.790269 0.620884
vt 0.790269 0.644512
vt 0.781227 0.666341
vt 0.764520 0.683048
vt 0.742691 0.692089
vt 0.719064 0.692090
vt 0.697235 0.683048
vt 0.680528 0.666341
vt 0.671486 0.644512
vt 0.680528 0.599056
vt 0.697235 0.582348
vt 0.719063 0.573307
vt 0.742691 0.573307
vt 0.764520 0.582348
vt 0.988955 0.374292
vt 0.757820 0.374292
vt 0.552703 0.858450
vt 0.561745 0.836622
vt 0.578452 0.819914
vt 0.600280 0.810873
vt 0.623908 0.810873
vt 0.645737 0.819914
vt 0.662444 0.836622
vt 0.671486 0.858450
vt 0.671486 0.882078
vt 0.662444 0.903907
vt 0.645737 0.920614
vt 0.623908 0.929656
vt 0.600280 0.929656
vt 0.578452 0.920614
vt 0.561745 0.903907
vt 0.552703 0.882078
s 1
usemtl player_tank_mat
f 6/1/1 7/2/1 4/3/1 2/4/1
f 8/5/2 2/4/2 4/3/2 5/6/2
f 5/7/3 7/8/3 3/9/3
f 8/10/4 6/11/4 2/12/4
f 5/13/5 3/14/5 1/15/5 8/16/5
f 8/10/4 1/17/4 6/11/4
f 5/7/3 4/18/3 7/8/3
f 1/15/1 3/14/1 7/2/1 6/1/1
f 9/19/6 10/20/6 12/21/7 11/22/7
f 11/22/7 12/21/7 14/23/8 13/24/8
f 13/24/8 14/23/8 16/25/9 15/26/9
f 15/26/9 16/25/9 18/27/10 17/28/10
f 17/29/10 18/30/10 20/31/11 19/32/11
f 19/32/11 20/31/11 22/33/12 21/34/12
f 21/34/12 22/33/12 24/35/13 23/36/13
f 23/36/13 24/35/13 26/37/14 25/38/14
f 25/38/14 26/37/14 28/39/15 27/40/15
f 27/40/15 28/39/15 30/41/16 29/42/16
f 29/42/16 30/41/16 32/43/17 31/44/17
f 31/44/17 32/43/17 34/45/1 33/46/1
f 33/46/1 34/45/1 36/47/18 35/48/18
f 35/48/18 36/47/18 38/49/19 37/50/19
f 12/51/4 10/52/4 40/53/4 38/54/4 36/55/4 34/56/4 32/57/4 30/58/4 28/59/4 26/60/4 24/61/4 22/62/4 20/63/4 18/64/4 16/65/4 14/66/4
f 37/50/19 38/49/19 40/67/20 39/68/20
f 39/68/20 40/67/20 10/20/6 9/19/6
f 9/69/3 11/70/3 13/71/3 15/72/3 17/73/3 19/74/3 21/75/3 23/76/3 25/77/3 27/78/3 29/79/3 31/80/3 33/61/3 35/60/3 37/81/3 39/82/3
f 41/83/6 42/84/6 44/85/7 43/86/7
f 43/86/7 44/85/7 46/87/8 45/88/8
f 45/88/8 46/87/8 48/89/9 47/90/9
f 47/90/9 48/89/9 50/91/10 49/92/10
f 49/93/10 50/94/10 52/95/11 51/96/11
f 51/96/11 52/95/11 54/97/12 53/98/12
f 53/98/12 54/97/12 56/99/13 55/100/13
f 55/100/13 56/99/13 58/101/14 57/102/14
f 57/102/14 58/101/14 60/103/15 59/104/15
f 59/104/15 60/103/15 62/105/16 61/106/16
f 61/106/16 62/105/16 64/107/17 63/108/17
f 63/108/17 64/107/17 66/109/1 65/110/1
f 65/110/1 66/109/1 68/111/18 67/112/18
f 67/112/18 68/111/18 70/113/19 69/114/19
f 44/115/4 42/116/4 72/117/4 70/118/4 68/119/4 66/120/4 64/121/4 62/122/4 60/123/4 58/124/4 56/77/4 54/125/4 52/126/4 50/127/4 48/128/4 46/129/4
f 69/114/19 70/113/19 72/130/20 71/131/20
f 71/131/20 72/130/20 42/84/6 41/83/6
f 41/132/3 43/133/3 45/134/3 47/135/3 49/136/3 51/137/3 53/138/3 55/139/3 57/140/3 59/141/3 61/142/3 63/143/3 65/144/3 67/145/3 69/146/3 71/147/3
