# Blender 4.1.0
# www.blender.org
o mountain3
v -2.140588 -0.032447 2.710883
v -2.140588 5.389318 0.000000
v -2.140588 -0.032447 -2.710883
v 1.280699 3.043611 0.532751
v 3.281177 -0.032447 2.710883
v 1.000000 3.108141 1.000000
v 3.281177 -0.032447 -2.710883
v 1.000000 3.108141 -1.000000
v 3.430442 -0.034642 2.710883
v 1.280699 2.951840 0.532751
v 3.430442 -0.034642 -2.710883
v 1.280699 2.951840 -0.532751
v 4.912352 3.047161 -0.410460
v 6.202958 0.042064 -2.088611
v 6.202958 0.042064 2.088611
v 4.912352 3.047161 0.410460
v 1.280699 3.043611 -0.532751
v 4.912352 3.138931 -0.410460
v 4.912352 3.138931 0.410460
v 3.179001 6.608462 0.091662
v 2.367994 6.587176 0.118972
v 3.179001 6.608462 -0.091663
v 2.367994 6.587176 -0.118972
v -2.255541 -0.032447 2.710883
v -2.255541 5.389318 0.000000
v -2.255541 -0.032447 -2.710883
v -5.424963 -0.015775 -1.251594
v -5.424963 -0.015775 1.251594
v -2.668462 7.596353 -0.000000
v -3.478863 7.637292 -0.240322
v -3.478863 7.637292 0.240321
vn -1.0000 -0.0000 -0.0000
vn 0.0198 0.4629 -0.8862
vn 0.8091 0.5877 -0.0000
vn 0.0198 0.4629 0.8862
vn -0.0000 -1.0000 -0.0000
vn 0.5877 0.8091 -0.0000
vn -0.8116 -0.5842 -0.0000
vn 0.9188 0.3946 -0.0000
vn 0.0796 0.5714 0.8168
vn 0.0277 -0.9996 -0.0000
vn -0.0262 0.9997 -0.0000
vn 0.0796 0.5714 -0.8168
vn 0.0262 -0.9997 -0.0000
vn 0.0307 0.1066 -0.9938
vn 0.0307 0.1066 0.9938
vn -0.9560 0.2933 -0.0000
vn 0.8946 0.4469 -0.0000
vn 1.0000 -0.0000 -0.0000
vn -0.0943 0.2767 -0.9563
vn -0.9692 0.2464 -0.0000
vn -0.0053 -1.0000 -0.0000
vn 0.0505 0.9987 -0.0000
vn -0.0943 0.2767 0.9563
vt 0.478753 0.294337
vt 0.478753 0.520541
vt 0.295979 0.387267
vt 0.070903 0.274287
vt 0.071099 0.046044
vt 0.189828 0.140153
vt 0.275936 0.274287
vt 0.521069 0.046044
vt 0.659581 0.110747
vt 0.659581 0.186383
vt 0.521069 0.251086
vt 0.295986 0.274287
vt 0.382094 0.140153
vt 0.500823 0.046044
vt 0.501019 0.274287
vt 0.275929 0.499379
vt 0.070903 0.499379
vt 0.070903 0.294337
vt 0.275929 0.294337
vt 0.850975 0.714975
vt 0.923043 0.613342
vt 0.923043 0.737933
vt 0.841823 0.499379
vt 0.841823 0.294337
vt 0.938138 0.376710
vt 0.938138 0.417006
vt 0.295979 0.765682
vt 0.418847 0.829147
vt 0.418847 0.860193
vt 0.295979 0.923657
vt 0.679631 0.227610
vt 0.707693 0.072630
vt 0.809928 0.046044
vt 0.809928 0.183826
vt 0.829978 0.251086
vt 0.829978 0.046044
vt 0.934857 0.069577
vt 0.934857 0.227553
vt 0.435875 0.540591
vt 0.476170 0.540591
vt 0.471545 0.677936
vt 0.440499 0.677936
vt 0.728690 0.768322
vt 0.700628 0.613342
vt 0.830925 0.657126
vt 0.830925 0.794908
vt 0.653814 0.535972
vt 0.649189 0.673348
vt 0.618144 0.673348
vt 0.613519 0.535972
vt 0.263194 0.678727
vt 0.272193 0.678727
vt 0.271160 0.709398
vt 0.264227 0.709398
vt 0.829641 0.814958
vt 0.829641 0.952414
vt 0.700628 0.906851
vt 0.700628 0.876155
vt 0.978703 0.814958
vt 0.978703 0.952414
vt 0.849691 0.891217
vt 0.849691 0.860521
vt 0.212098 0.519429
vt 0.252394 0.519429
vt 0.236745 0.658677
vt 0.227747 0.658677
vt 0.212098 0.678727
vt 0.243144 0.678727
vt 0.231088 0.823221
vt 0.224155 0.823221
vt 0.498803 0.389204
vt 0.680578 0.294337
vt 0.680578 0.515922
vt 0.153515 0.593416
vt 0.192048 0.818383
vt 0.070903 0.818383
vt 0.094682 0.526460
vt 0.124653 0.519429
vt 0.593469 0.535972
vt 0.555224 0.833948
vt 0.537047 0.833948
vt 0.498803 0.535972
vt 0.415825 0.540591
vt 0.415825 0.745632
vt 0.295980 0.690445
vt 0.295980 0.595779
vt 0.630946 0.693399
vt 0.630946 0.725365
vt 0.613519 0.720197
vt 0.700628 0.593292
vt 0.739161 0.368324
vt 0.768024 0.294337
vt 0.797995 0.301369
vt 0.821773 0.593292
s 0
f 1/1/1 2/2/1 3/3/1
f 3/4/2 2/5/2 8/6/2 7/7/2
f 7/8/3 8/9/3 6/10/3 5/11/3
f 5/12/4 6/13/4 2/14/4 1/15/4
f 3/16/5 7/17/5 5/18/5 1/19/5
f 8/20/6 2/21/6 6/22/6
f 11/23/7 9/24/7 10/25/7 12/26/7
f 14/27/8 13/28/8 16/29/8 15/30/8
f 10/31/9 9/32/9 15/33/9 16/34/9
f 9/35/10 11/36/10 14/37/10 15/38/10
f 12/39/11 10/40/11 16/41/11 13/42/11
f 11/43/12 12/44/12 13/45/12 14/46/12
f 17/47/13 18/48/13 19/49/13 4/50/13
f 23/51/11 21/52/11 20/53/11 22/54/11
f 18/55/14 17/56/14 23/57/14 22/58/14
f 4/59/15 19/60/15 20/61/15 21/62/15
f 17/63/16 4/64/16 21/65/16 23/66/16
f 19/67/17 18/68/17 22/69/17 20/70/17
f 24/71/18 26/72/18 25/73/18
f 25/74/19 26/75/19 27/76/19 30/77/19 29/78/19
f 28/79/20 31/80/20 30/81/20 27/82/20
f 26/83/21 24/84/21 28/85/21 27/86/21
f 29/87/22 30/88/22 31/89/22
f 24/90/23 25/91/23 29/92/23 31/93/23 28/94/23
