# Blender 4.1.0
# www.blender.org
o mountain2
v -4.000000 0.032452 3.911192
v -3.448501 10.334703 0.696870
v -4.000000 0.032452 -4.088808
v -3.448501 10.334703 -0.089979
v 4.000000 0.032452 3.911192
v -2.661652 10.334703 0.696870
v 4.000000 0.032452 -4.088808
v -2.661652 10.334703 -0.089979
v -4.100060 0.032452 3.911192
v -3.548562 10.334703 0.696870
v -4.100060 0.032452 -4.088808
v -3.548562 10.334703 -0.089979
v -9.228848 0.012237 -3.825816
v -9.228848 0.012237 3.896329
v -9.026212 3.797604 1.114732
v -9.026212 3.797604 -0.755968
v 4.125734 0.076629 3.911192
v 1.310633 4.425632 1.739063
v 4.125734 0.076629 -4.088808
v 1.310633 4.425632 0.235078
v 4.507756 4.523450 0.072989
v 9.339151 0.088513 -4.360841
v 9.339151 0.088513 3.639159
v 4.507756 4.523450 1.576973
vn -0.9986 0.0535 -0.0000
vn -0.0000 0.3618 -0.9322
vn 0.8397 0.5430 -0.0000
vn -0.0000 0.2978 0.9546
vn -0.0000 -1.0000 -0.0000
vn -0.0000 1.0000 -0.0000
vn 0.9986 -0.0535 -0.0000
vn -0.7665 0.6423 -0.0000
vn 0.0039 -1.0000 -0.0000
vn -0.2426 0.4454 -0.8618
vn -0.2086 0.3924 0.8958
vn -0.8395 -0.5434 -0.0000
vn 0.6762 0.7367 -0.0000
vn -0.0306 0.9995 -0.0000
vn -0.0465 0.6847 -0.7273
vn 0.0397 0.4617 0.8861
vn 0.0023 -1.0000 -0.0000
vt 0.458034 0.356530
vt 0.373522 0.627789
vt 0.352834 0.627789
vt 0.247695 0.356530
vt 0.235324 0.061719
vt 0.216234 0.348376
vt 0.195646 0.348376
vt 0.026002 0.061718
vt 0.680743 0.356530
vt 0.575605 0.617651
vt 0.554916 0.617651
vt 0.470405 0.356530
vt 0.247695 0.344160
vt 0.421018 0.061719
vt 0.441673 0.061719
vt 0.457694 0.344160
vt 0.680743 0.840360
vt 0.470405 0.840360
vt 0.470405 0.630022
vt 0.680743 0.630022
vt 0.175924 0.652115
vt 0.196609 0.652115
vt 0.196609 0.672803
vt 0.175924 0.672803
vt 0.470065 0.061718
vt 0.680404 0.061719
vt 0.575265 0.332977
vt 0.554577 0.332977
vt 0.229035 0.360747
vt 0.155901 0.460416
vt 0.106716 0.460416
vt 0.026002 0.360747
vt 0.144914 0.639744
vt 0.124226 0.639744
vt 0.827962 0.662095
vt 0.827962 0.872433
vt 0.693114 0.872043
vt 0.693114 0.669009
vt 0.832799 0.356530
vt 0.832799 0.643823
vt 0.698087 0.649724
vt 0.693114 0.523017
vt 0.163553 0.660079
vt 0.163553 0.942974
vt 0.026002 0.772236
vt 0.029125 0.652115
vt 0.845170 0.566869
vt 0.845170 0.356530
vt 0.955396 0.413641
vt 0.955396 0.453184
vt 0.457015 0.850498
vt 0.331784 0.733922
vt 0.331784 0.694379
vt 0.457015 0.640159
vt 0.247695 0.729661
vt 0.247695 0.690117
vt 0.840333 0.832207
vt 0.879136 0.662095
vt 0.944334 0.715284
vt 0.944334 0.921496
vt 0.879032 0.298493
vt 0.842219 0.155514
vt 0.941414 0.061719
vt 0.941414 0.242458
vt 0.692775 0.279210
vt 0.692775 0.068871
vt 0.829848 0.061719
vt 0.829848 0.272057
s 0
f 1/1/1 2/2/1 4/3/1 3/4/1
f 3/5/2 4/6/2 8/7/2 7/8/2
f 7/9/3 8/10/3 6/11/3 5/12/3
f 5/13/4 6/14/4 2/15/4 1/16/4
f 3/17/5 7/18/5 5/19/5 1/20/5
f 8/21/6 4/22/6 2/23/6 6/24/6
f 9/25/7 11/26/7 12/27/7 10/28/7
f 14/29/1 15/30/1 16/31/1 13/32/1
f 10/33/8 12/34/8 16/31/8 15/30/8
f 11/35/9 9/36/9 14/37/9 13/38/9
f 12/39/10 11/40/10 13/41/10 16/42/10
f 9/43/11 10/44/11 15/45/11 14/46/11
f 19/47/12 17/48/12 18/49/12 20/50/12
f 22/51/13 21/52/13 24/53/13 23/54/13
f 20/55/14 18/56/14 24/53/14 21/52/14
f 19/57/15 20/58/15 21/59/15 22/60/15
f 18/61/16 17/62/16 23/63/16 24/64/16
f 17/65/17 19/66/17 22/67/17 23/68/17
