# Blender 4.1.0
# www.blender.org
mtllib SM_Rock2.mtl
o rock2
v -0.675214 1.127705 -0.241480
v -0.278234 1.222645 0.646298
v 0.488243 1.127705 -0.241480
v 0.513263 1.219920 0.316507
v -0.675214 0.005091 -0.687781
v -0.289950 -0.066021 0.564064
v 0.488243 0.005091 -0.687781
v 1.074908 -0.044251 0.307987
v -1.058613 1.890118 -1.570265
v -0.697480 2.409214 -0.305862
v 0.926407 1.458958 -1.121298
v 0.509925 2.409214 -0.305862
v -0.325340 0.896575 -1.586537
v -0.697480 1.201809 -0.305862
v 0.738478 0.691196 -0.963131
v 0.509925 1.201809 -0.305862
v -0.675214 2.411519 -0.241480
v -0.494533 1.944038 0.752103
v 0.488243 2.411519 -0.241480
v 0.397008 1.944038 0.752103
v -0.675214 1.319883 -0.241480
v -0.534168 1.270623 0.351512
v 0.488243 1.319883 -0.241480
v 0.542178 1.266700 0.355366
v -0.674536 1.150014 -0.291661
v -0.369691 0.018706 -0.755223
v 0.488921 1.150014 -0.291661
v 0.521851 0.018706 -0.755223
v -0.614311 0.770031 -1.082512
v -0.818138 0.018706 -1.378498
v 0.613086 0.437662 -1.379378
v 0.970297 0.018706 -1.378498
vn -0.0193 0.9922 -0.1228
vn 0.8912 0.2780 -0.3585
vn 0.0030 -0.9985 -0.0548
vn -0.9366 -0.0707 0.3432
vn -0.0000 0.3694 -0.9293
vn 0.2619 0.0221 0.9648
vn 0.1879 0.8045 -0.5634
vn 0.8957 -0.0498 0.4418
vn -0.1757 -0.9256 0.3352
vn -0.9439 -0.3152 0.0980
vn 0.3370 0.0285 -0.9411
vn -0.0000 -0.0000 1.0000
vn -0.0000 0.9048 0.4257
vn 0.9964 0.0713 0.0467
vn -0.0016 -0.9963 -0.0855
vn -0.9812 -0.0215 0.1919
vn -0.0000 -0.0000 -1.0000
vn -0.0027 -0.5085 0.8611
vn -0.0000 -0.3792 0.9253
vn 0.9539 0.1653 0.2504
vn -0.0695 0.2353 -0.9694
vn -0.9370 -0.1728 0.3037
vn 0.0585 0.8655 -0.4975
vn -0.0000 -1.0000 -0.0000
vt 0.409232 0.782394
vt 0.521771 0.828726
vt 0.489544 0.931203
vt 0.419023 0.931203
vt 0.759121 0.275370
vt 0.827970 0.254948
vt 0.843707 0.424537
vt 0.722763 0.424537
vt 0.277423 0.086534
vt 0.416755 0.035357
vt 0.416755 0.213500
vt 0.249956 0.233424
vt 0.602668 0.035357
vt 0.602668 0.203807
vt 0.438279 0.204240
vt 0.454706 0.081983
vt 0.773406 0.035357
vt 0.773406 0.187120
vt 0.624192 0.189354
vt 0.624192 0.037591
vt 0.060630 0.318828
vt 0.221044 0.391370
vt 0.225080 0.496557
vt 0.059336 0.496557
vt 0.228432 0.297304
vt 0.059336 0.230665
vt 0.077192 0.076935
vt 0.228432 0.035357
vt 0.823285 0.509952
vt 0.823285 0.677396
vt 0.722334 0.561022
vt 0.743731 0.452850
vt 0.546167 0.589956
vt 0.552087 0.496801
vt 0.700810 0.452850
vt 0.700810 0.626363
vt 0.395049 0.254948
vt 0.395049 0.412010
vt 0.249956 0.462279
vt 0.256174 0.281322
vt 0.524643 0.518011
vt 0.428240 0.512909
vt 0.416573 0.370624
vt 0.524643 0.254948
vt 0.059336 0.519786
vt 0.213398 0.518081
vt 0.213398 0.672690
vt 0.059336 0.674395
vt 0.937116 0.853215
vt 0.844809 0.821754
vt 0.844809 0.707477
vt 0.937116 0.704084
vt 0.921172 0.035357
vt 0.921172 0.176887
vt 0.819109 0.166396
vt 0.794930 0.094213
vt 0.622468 0.969645
vt 0.546167 0.977044
vt 0.546637 0.838773
vt 0.622468 0.820209
vt 0.234923 0.784389
vt 0.261435 0.710389
vt 0.361540 0.699239
vt 0.361540 0.841328
vt 0.684646 0.797118
vt 0.546167 0.798684
vt 0.546167 0.649453
vt 0.684646 0.647887
vt 0.957840 0.392727
vt 0.865231 0.370263
vt 0.865595 0.256101
vt 0.957840 0.254948
vt 0.234923 0.677715
vt 0.269694 0.524033
vt 0.383702 0.518081
vt 0.383702 0.669947
vt 0.147873 0.899483
vt 0.059336 0.771030
vt 0.100752 0.695919
vt 0.147873 0.731827
vt 0.422435 0.598290
vt 0.461498 0.539535
vt 0.521771 0.760870
vt 0.416573 0.760870
vt 0.735118 0.800816
vt 0.722334 0.698920
vt 0.811230 0.721691
vt 0.811230 0.880809
vt 0.552480 0.420800
vt 0.546167 0.254948
vt 0.701239 0.318288
vt 0.701239 0.431326
vt 0.844809 0.452850
vt 0.924843 0.510273
vt 0.924843 0.624784
vt 0.844809 0.682560
s 0
f 1/1/1 2/2/1 4/3/1 3/4/1
f 3/5/2 4/6/2 8/7/2 7/8/2
f 7/9/3 8/10/3 6/11/3 5/12/3
f 5/13/4 6/14/4 2/15/4 1/16/4
f 3/17/5 7/18/5 5/19/5 1/20/5
f 8/21/6 4/22/6 2/23/6 6/24/6
f 9/25/7 10/26/7 12/27/7 11/28/7
f 11/29/8 12/30/8 16/31/8 15/32/8
f 15/33/9 16/34/9 14/35/9 13/36/9
f 13/37/10 14/38/10 10/39/10 9/40/10
f 11/41/11 15/42/11 13/43/11 9/44/11
f 16/45/12 12/46/12 10/47/12 14/48/12
f 17/49/13 18/50/13 20/51/13 19/52/13
f 19/53/14 20/54/14 24/55/14 23/56/14
f 23/57/15 24/58/15 22/59/15 21/60/15
f 21/61/16 22/62/16 18/63/16 17/64/16
f 19/65/17 23/66/17 21/67/17 17/68/17
f 24/69/18 20/70/18 18/71/18 22/72/18
f 25/73/19 26/74/19 28/75/19 27/76/19
f 27/77/20 28/78/20 32/79/20 31/80/20
f 31/81/21 32/82/21 30/83/21 29/84/21
f 29/85/22 30/86/22 26/87/22 25/88/22
f 27/89/23 31/90/23 29/91/23 25/92/23
f 32/93/24 28/94/24 26/95/24 30/96/24
