# Blender 4.1.0
# www.blender.org
mtllib SM_Rock1.mtl
o rock1
v 0.051298 1.143368 0.886067
v 0.136760 1.538382 0.586509
v 0.051298 1.143368 -0.277390
v 0.136760 1.538382 -0.067278
v 1.173912 0.697066 0.886067
v 0.750188 1.538382 0.586509
v 1.173912 0.697066 -0.277390
v 0.750188 1.538382 -0.067278
v -1.351222 0.000795 1.000000
v -1.230211 1.078986 0.908333
v -1.351222 0.000795 -1.000000
v -1.230211 1.078986 -0.299072
v 0.648778 0.000795 1.000000
v -0.022806 1.078986 0.908333
v 0.648778 0.000795 -1.000000
v -0.022806 1.078986 -0.299072
v -1.232516 1.143368 0.886067
v -0.765034 2.136951 0.705386
v -1.232516 1.143368 -0.277390
v -0.765034 2.136951 -0.186155
v -0.140880 1.143368 0.886067
v 0.071471 2.136951 0.705386
v -0.140880 1.143368 -0.277390
v 0.071471 2.136951 -0.186155
v 0.028989 1.093187 0.885389
v 1.160297 0.629624 0.580544
v 0.028989 1.093187 -0.278068
v 1.160297 0.629624 -0.310998
v 0.741341 0.005470 0.761225
v 1.160297 0.006350 0.580544
v 0.741341 0.005470 -0.402233
v 1.160297 0.006350 -0.310998
vn -0.9774 0.2115 -0.0000
vn 0.0879 0.3421 -0.9356
vn 0.8931 0.4498 -0.0000
vn 0.1180 0.4590 0.8806
vn -0.3694 -0.9293 -0.0000
vn -0.0000 1.0000 -0.0000
vn -0.9938 0.1115 -0.0000
vn -0.0000 0.5450 -0.8384
vn 0.8488 0.5287 -0.0000
vn -0.0000 0.0847 0.9964
vn -0.0000 -1.0000 -0.0000
vn -0.9048 0.4257 -0.0000
vn -0.0000 0.0914 -0.9958
vn 0.9779 -0.2090 -0.0000
vn -0.0000 0.1789 0.9839
vn 0.3792 0.9253 -0.0000
vn 0.0672 0.1000 -0.9927
vn 0.0021 -1.0000 -0.0000
vn 0.3152 0.0625 0.9470
vn -0.8366 -0.5479 -0.0000
vn 1.0000 -0.0000 -0.0000
vt 0.940941 0.967669
vt 0.886274 0.927115
vt 0.886274 0.838606
vt 0.940941 0.810161
vt 0.975463 0.778623
vt 0.915805 0.788437
vt 0.886274 0.710889
vt 0.975463 0.615420
vt 0.478311 0.953826
vt 0.355155 0.925381
vt 0.355155 0.836872
vt 0.478311 0.796318
vt 0.322610 0.939221
vt 0.230955 0.844460
vt 0.260830 0.767522
vt 0.322610 0.775740
vt 0.355155 0.617085
vt 0.512098 0.617085
vt 0.512098 0.774593
vt 0.355155 0.774593
vt 0.727766 0.211563
vt 0.810427 0.211563
vt 0.810427 0.300073
vt 0.727766 0.300073
vt 0.209231 0.595573
vt 0.063847 0.583163
vt 0.063847 0.419705
vt 0.209231 0.324814
vt 0.521617 0.302877
vt 0.355155 0.284488
vt 0.355155 0.121159
vt 0.521617 0.032331
vt 0.516512 0.595361
vt 0.355155 0.500470
vt 0.355155 0.337011
vt 0.516512 0.324602
vt 0.683700 0.593695
vt 0.538236 0.501417
vt 0.538236 0.338965
vt 0.683700 0.324602
vt 0.333431 0.303090
vt 0.063847 0.303090
vt 0.063847 0.032331
vt 0.333431 0.032331
vt 0.543341 0.032331
vt 0.706042 0.032331
vt 0.706042 0.195789
vt 0.543341 0.195789
vt 0.873883 0.189839
vt 0.727766 0.165378
vt 0.727766 0.044682
vt 0.873883 0.032331
vt 0.838131 0.499999
vt 0.705424 0.437759
vt 0.705424 0.324602
vt 0.838131 0.352329
vt 0.843305 0.952160
vt 0.717406 0.939809
vt 0.717406 0.819113
vt 0.843305 0.794652
vt 0.063847 0.645513
vt 0.200526 0.617297
vt 0.200526 0.729847
vt 0.063847 0.792389
vt 0.864550 0.772928
vt 0.717406 0.772928
vt 0.717406 0.615420
vt 0.864550 0.615420
vt 0.538236 0.800116
vt 0.650957 0.800116
vt 0.650957 0.920812
vt 0.538236 0.920812
vt 0.538236 0.778391
vt 0.575033 0.618813
vt 0.695682 0.615420
vt 0.695682 0.773963
vt 0.324655 0.745797
vt 0.230955 0.609462
vt 0.275141 0.541435
vt 0.324655 0.570175
vt 0.952068 0.189839
vt 0.895607 0.177488
vt 0.895607 0.056791
vt 0.952068 0.032331
vt 0.230955 0.379148
vt 0.254549 0.324814
vt 0.332283 0.352928
vt 0.332283 0.519711
vt 0.978063 0.482110
vt 0.859855 0.498919
vt 0.859855 0.341411
vt 0.978063 0.324602
vt 0.063847 0.814114
vt 0.146476 0.814114
vt 0.146476 0.934810
vt 0.063847 0.934810
s 0
f 1/1/1 2/2/1 4/3/1 3/4/1
f 3/5/2 4/6/2 8/7/2 7/8/2
f 7/9/3 8/10/3 6/11/3 5/12/3
f 5/13/4 6/14/4 2/15/4 1/16/4
f 3/17/5 7/18/5 5/19/5 1/20/5
f 8/21/6 4/22/6 2/23/6 6/24/6
f 9/25/7 10/26/7 12/27/7 11/28/7
f 11/29/8 12/30/8 16/31/8 15/32/8
f 15/33/9 16/34/9 14/35/9 13/36/9
f 13/37/10 14/38/10 10/39/10 9/40/10
f 11/41/11 15/42/11 13/43/11 9/44/11
f 16/45/6 12/46/6 10/47/6 14/48/6
f 17/49/12 18/50/12 20/51/12 19/52/12
f 19/53/13 20/54/13 24/55/13 23/56/13
f 23/57/14 24/58/14 22/59/14 21/60/14
f 21/61/15 22/62/15 18/63/15 17/64/15
f 19/65/11 23/66/11 21/67/11 17/68/11
f 24/69/6 20/70/6 18/71/6 22/72/6
f 25/73/16 26/74/16 28/75/16 27/76/16
f 27/77/17 28/78/17 32/79/17 31/80/17
f 31/81/18 32/82/18 30/83/18 29/84/18
f 29/85/19 30/86/19 26/87/19 25/88/19
f 27/89/20 31/90/20 29/91/20 25/92/20
f 32/93/21 28/94/21 26/95/21 30/96/21
